<svg width="121" height="70" viewBox="0 0 121 70" fill="none" xmlns="http://www.w3.org/2000/svg">
<g clip-path="url(#clip0_3_1158)">
<path fill-rule="evenodd" clip-rule="evenodd" d="M0 34.816H7.27591V37.4504H5.02523V41.8734H13.226V37.4504H10.9106V34.816H18.3159V37.4504H15.9359V50.4548H18.3159V53.0311H10.9106V50.4548H13.226V44.4498H5.02523V50.4548H7.27591V53.0311H0V50.4548H2.31536V37.4504H0V34.816Z" fill="#F37021"/>
<path fill-rule="evenodd" clip-rule="evenodd" d="M87.0134 34.816H101.953V39.8976H99.4439V37.4504H92.168V41.8089H98.3833V44.3852H92.168V50.4548H99.3792V46.9615H102.024V53.0311H87.0134V50.4548H89.4581V37.4504H87.0134V34.816Z" fill="#F37021"/>
<path fill-rule="evenodd" clip-rule="evenodd" d="M21.6854 34.816H36.6964V39.8976H34.1159V37.4504H26.8465V41.8089H33.0617V44.3852H26.8465V50.4548H34.0512V46.9615H36.6964V53.0311H21.6854V50.4548H24.1366V37.4504H21.6854V34.816Z" fill="#F37021"/>
<path fill-rule="evenodd" clip-rule="evenodd" d="M91.379 32.3688H96.734L98.0534 33.9572H92.8341L91.379 32.3688Z" fill="#F37021"/>
<path fill-rule="evenodd" clip-rule="evenodd" d="M116.634 42.6031C114.785 42.1382 113.524 42.2092 111.609 41.6152C109.954 41.0211 109.624 40.0332 109.624 39.3681C109.624 38.645 110.348 36.8628 112.993 36.8628C115.638 36.8628 117.423 38.645 117.488 40.1623H120.069V34.816H117.559V36.0041L117.689 36.3334C117.624 36.3334 117.559 36.1332 117.294 35.9395V35.8749C116.57 35.2163 115.043 34.4221 112.799 34.4221C110.089 34.4221 106.914 36.1397 106.914 39.3746C106.914 42.6095 109.165 43.5975 111.144 44.1269C113.058 44.6564 114.054 44.6564 115.703 45.1148C117.288 45.5087 118.348 46.5031 118.348 47.9559C118.348 49.2731 117.488 51.0553 114.047 51.0553C110.607 51.0553 109.287 49.2086 108.893 46.6322H106.448V53.0375H108.958V51.8495L108.893 51.5202C108.893 51.5202 108.958 51.7203 109.287 51.914V51.9786C110.542 52.9665 112.262 53.6316 114.377 53.6316C116.822 53.6316 120.987 52.3789 120.987 48.0205C120.987 44.8501 119.331 43.3973 116.622 42.6095L116.634 42.6031Z" fill="#F37021"/>
<path fill-rule="evenodd" clip-rule="evenodd" d="M81.128 50.4548V37.4504H83.5727V34.816H76.9629L72.5327 45.5087L72.468 46.0317L72.3322 45.5087L67.9731 34.816H61.2922V37.4504H63.7369V50.4548H61.2922V53.0311H68.7622V50.4548H66.4468V38.5094V37.7152L66.6473 38.3092L71.7372 50.4548H73.1924L78.2823 38.3092L78.4181 37.6506L78.4828 38.3802V50.4548H76.1674V53.0311H83.5727V50.4548H81.128Z" fill="#F37021"/>
<path fill-rule="evenodd" clip-rule="evenodd" d="M27.836 27.8166H25.3267V27.158H27.1764C27.241 27.2872 27.642 27.6229 27.836 27.8166Z" fill="#F37021"/>
<path fill-rule="evenodd" clip-rule="evenodd" d="M90.978 27.8166C90.978 27.5519 91.2431 27.2872 91.573 27.158H92.8923V27.8166H90.978Z" fill="#F37021"/>
<path fill-rule="evenodd" clip-rule="evenodd" d="M49.4568 28.2751C48.3315 28.8045 46.9474 28.74 45.8221 28.2751H32.6672C31.4126 28.8045 29.9574 28.8045 28.7027 28.2751H25.3331V29.5277H92.9053V28.2751H49.4633H49.4568Z" fill="#F37021"/>
<path fill-rule="evenodd" clip-rule="evenodd" d="M33.4562 27.8166C33.6567 27.6875 34.1159 27.2226 34.1806 27.158H44.3604C44.4897 27.3582 44.8261 27.6875 45.0201 27.8166H33.4498H33.4562Z" fill="#F37021"/>
<path fill-rule="evenodd" clip-rule="evenodd" d="M47.6717 27.4227C49.3921 27.4227 50.8473 25.9699 50.8473 24.2524C50.8473 22.5348 49.3921 21.0174 47.6717 21.0174C45.9514 21.0174 44.4315 22.4703 44.4315 24.2524C44.4315 26.0345 45.8867 27.4227 47.6717 27.4227V28.0814C45.4922 28.0814 43.7719 26.3638 43.7719 24.2524C43.7719 22.1409 45.4922 20.3588 47.6717 20.3588C49.8513 20.3588 51.507 22.0764 51.507 24.2524C51.507 26.4284 49.7866 28.0814 47.6717 28.0814V27.4227Z" fill="#F37021"/>
<path fill-rule="evenodd" clip-rule="evenodd" d="M35.0408 23.7229C35.0408 21.3467 33.0553 19.3644 30.6752 19.3644C28.2952 19.3644 26.3097 21.3467 26.3097 23.7229C26.3097 26.0991 28.2241 28.0813 30.6752 28.0813C33.1264 28.0813 35.0408 26.1701 35.0408 23.7229H34.3164C34.3164 25.7698 32.6608 27.4227 30.6817 27.4227C28.7027 27.4227 26.9823 25.7698 26.9823 23.7229C26.9823 21.676 28.638 20.0941 30.6817 20.0941C32.7254 20.0941 34.3164 21.676 34.3164 23.7229H35.0408Z" fill="#F37021"/>
<path fill-rule="evenodd" clip-rule="evenodd" d="M49.7219 26.4284L48.4026 24.911V24.8464C48.4672 24.7818 48.4673 24.7173 48.5319 24.6463L50.5174 25.1757C50.5821 25.1757 50.7179 25.2403 50.7179 25.3049C50.7179 25.2403 50.7826 24.9756 50.8473 24.84C50.7826 24.9045 50.6468 24.9045 50.5174 24.9045L48.6677 24.3751C48.6031 24.3751 48.6031 24.3105 48.6031 24.3105V23.9812L50.5174 23.258C50.5174 23.258 50.7179 23.258 50.7179 23.3226C50.7179 23.258 50.5886 22.9287 50.5886 22.8577C50.5886 22.9222 50.4592 23.0578 50.3881 23.0578L50.5174 22.9933L48.5319 23.7164C48.5319 23.781 48.5319 23.7164 48.4673 23.7164C48.4673 23.6519 48.4026 23.5873 48.3379 23.5873C48.3379 23.5227 48.2732 23.4582 48.3379 23.4582L49.3986 21.8052C49.4632 21.7406 49.5991 21.676 49.6637 21.676C49.5991 21.676 49.3339 21.4759 49.1981 21.4113C49.2628 21.4113 49.2628 21.6115 49.1981 21.676L48.1374 23.329H48.0081C48.0081 23.329 47.8787 23.2645 47.8076 23.2645C47.8076 23.2645 47.7429 23.2645 47.7429 23.1999L47.6782 21.2886C47.6782 21.1595 47.6782 21.0239 47.8076 21.0239H47.2772C47.3419 21.0239 47.4066 21.2241 47.4066 21.2886L47.4713 23.1999C47.4713 23.2645 47.4066 23.2645 47.4066 23.2645C47.4066 23.2645 47.2772 23.329 47.2061 23.3936C47.2061 23.3936 47.1414 23.3936 47.1414 23.329L45.8867 21.8116C45.8221 21.7471 45.8221 21.6115 45.8221 21.5469C45.7574 21.6115 45.4922 21.8116 45.4275 21.8762C45.4922 21.8762 45.628 21.9408 45.6927 22.0054L46.9474 23.5227V23.5873C46.8827 23.5873 46.818 23.7165 46.818 23.7875C46.818 23.7875 46.7534 23.852 46.6887 23.852L44.839 23.3226C44.7096 23.258 44.6385 23.1934 44.6385 23.1224C44.6385 23.187 44.5092 23.5163 44.5092 23.5873C44.5092 23.5873 44.7096 23.5227 44.7743 23.5873L46.624 24.0522C46.6887 24.0522 46.6887 24.1168 46.6887 24.1168V24.4461L44.839 25.2403C44.7743 25.2403 44.6385 25.3049 44.6385 25.2403C44.6385 25.3049 44.7032 25.5696 44.7679 25.7052C44.7679 25.6406 44.8972 25.505 44.9683 25.505L46.7534 24.7108C46.818 24.7108 46.818 24.7754 46.818 24.7754C46.8827 24.7754 46.9474 24.84 46.9474 24.9045C47.0121 24.9045 47.0121 24.9691 47.0121 24.9691L45.8867 26.6221C45.8221 26.6867 45.7574 26.7512 45.6862 26.7512C45.7509 26.8158 46.0161 27.016 46.0808 27.016C46.0161 27.016 46.0808 26.8158 46.0808 26.7512L47.2061 25.1693C47.2061 25.1047 47.2708 25.1047 47.2708 25.1047C47.3354 25.1693 47.4001 25.1693 47.4713 25.1693C47.5424 25.1693 47.5359 25.1693 47.5359 25.2338L47.6653 27.2161C47.6653 27.2807 47.6006 27.4163 47.5359 27.4163H48.0663C47.9369 27.4163 47.9369 27.2872 47.9369 27.1516L47.8076 25.2403C47.8076 25.1757 47.8722 25.1757 47.8722 25.1757C47.9369 25.1757 48.0727 25.1112 48.1374 25.0466C48.1374 25.0466 48.2021 25.0466 48.2021 25.1112L49.5214 26.564C49.5214 26.6285 49.5861 26.7641 49.5861 26.8287C49.6508 26.7641 49.8513 26.564 49.916 26.4994C49.8513 26.564 49.7155 26.4348 49.7155 26.4348L49.7219 26.4284Z" fill="#F37021"/>
<path fill-rule="evenodd" clip-rule="evenodd" d="M30.5459 21.2176C32.3956 21.2176 34.2517 21.4178 35.3059 21.7471C35.4353 21.7471 35.4353 21.8762 35.3059 21.9472C34.1806 22.212 32.3309 22.4121 30.6105 22.4121C28.8902 22.4767 27.0405 22.4121 25.8505 22.1474C25.7211 22.1474 25.7211 22.0183 25.8505 22.0183C26.9112 21.6244 28.6962 21.2951 30.5459 21.224V20.8947C28.5604 20.9593 26.5813 21.4242 24.9256 22.0183C24.7251 22.0828 24.7251 22.2184 24.9256 22.2184C26.7753 22.6833 28.6962 22.7479 30.6105 22.6833C32.4602 22.6188 34.4458 22.4832 36.2308 21.9601C36.496 21.8956 36.4313 21.76 36.2955 21.76C34.5751 21.2305 32.5896 20.9012 30.5459 20.9012V21.2305V21.2176Z" fill="#F37021"/>
<path fill-rule="evenodd" clip-rule="evenodd" d="M50.1876 20.0295C49.7219 20.1587 48.9329 20.4234 48.5319 20.4234C48.2021 20.4234 46.5464 20.3588 45.4211 20.4234C43.9012 20.488 43.7654 20.6881 43.7007 20.5525C43.3709 20.0231 43.1057 19.2353 42.5754 18.7704C39.4645 19.2999 36.4248 18.835 33.6503 17.8471V17.4532C33.8508 17.5178 33.9801 17.5178 34.1159 17.5178C33.6503 16.8591 32.8612 16.659 32.3956 15.9358C32.1304 15.7356 32.0657 15.3418 31.8006 15.1416C31.8652 15.8648 31.2702 16.3942 31.2056 16.9883C31.6001 17.1174 32.1304 17.1174 32.3309 17.0529C32.5961 16.9883 32.9259 17.0529 33.0553 17.253C33.2557 17.3176 33.3851 17.4532 33.6503 17.4532V17.8471C33.3204 17.7825 33.2557 17.7179 32.9906 17.5823C32.6607 17.7115 32.3956 17.6469 32.2662 17.5178C32.2016 17.4532 31.5419 17.4532 31.2767 17.4532C30.4165 17.4532 29.4917 17.7825 29.026 18.5121C28.8255 18.906 28.8967 19.3709 29.0907 19.7002C29.22 19.9004 29.8151 20.7592 30.216 21.0174L29.6857 21.1466C28.8902 20.4234 28.2952 19.7583 28.431 18.8996C28.8255 17.0529 30.5459 17.3176 31.0115 16.5234C31.3414 15.8002 31.4772 13.6823 31.0762 13.0883C29.9509 12.6234 28.5668 12.0293 28.3017 10.7121C28.237 10.3828 28.3663 9.98893 28.6962 9.91791C29.2912 9.78877 29.6857 10.1181 30.1514 10.3118C30.3519 10.1826 29.9509 9.71774 30.4165 9.71774C31.0115 9.71774 31.4061 10.9058 31.6065 10.9704L31.5419 11.4353C31.1474 11.3062 29.6922 10.5119 29.5564 10.4474C29.2912 10.3182 28.9613 10.1181 28.7609 10.3828C28.4957 10.7121 28.8255 11.106 29.026 11.4418C32.1369 14.6767 37.2915 11.2416 40.661 13.5532C40.7257 13.353 40.661 13.2884 40.5317 13.2239C38.2163 11.0479 34.5169 12.1649 31.5419 11.4418L31.6065 10.9769C35.3124 11.9002 40.2018 10.3828 42.1227 14.6057C43.3773 16.3878 44.7032 19.2289 47.4131 19.2934C49.5926 19.358 51.0478 18.4992 52.1084 16.9173C53.5636 14.2764 54.4238 11.2416 57.0043 9.45946C57.2695 9.33032 57.3988 9.45946 57.2695 9.52403C56.0148 10.7767 54.8895 12.4297 54.2944 13.8179C55.284 17.5823 57.47 16.7881 58.0003 16.7236C57.871 15.3353 58.0003 11.2416 60.9753 10.2537C61.635 9.7242 64.0151 8.20681 67.1259 9.53049C64.8106 11.7065 63.4201 14.8123 62.9609 16.9883L60.3803 17.7115C60.5808 17.3176 60.5808 16.6525 60.5097 15.9293C60.2445 16.0585 59.9794 16.2587 59.3844 16.588C59.1192 16.6525 59.3197 16.2587 59.3197 16.2587C59.3197 16.1295 59.9794 15.8648 60.5097 15.5355C60.3092 14.0181 60.1799 12.0358 61.4345 10.7831C58.854 11.6419 59.5848 17.0529 59.85 17.7115C59.1257 18.0408 58.1297 18.0408 58.1297 18.0408L58.0003 17.1174C56.875 17.5113 54.9606 17.2466 54.1004 14.2764C53.1756 16.1876 52.3801 19.2289 50.2005 20.0166L50.1876 20.0295Z" fill="#F37021"/>
<path fill-rule="evenodd" clip-rule="evenodd" d="M90.5188 11.9712C90.3895 11.8421 90.3183 11.771 90.189 11.771C90.1243 11.7065 90.189 11.6419 90.2536 11.6419C90.3183 11.5773 90.4541 11.6419 90.5188 11.771C90.5835 11.8356 90.5835 11.9712 90.5188 11.9712Z" fill="#F37021"/>
<path fill-rule="evenodd" clip-rule="evenodd" d="M31.3414 24.7108L32.7319 26.2928C32.8613 26.4219 32.8613 26.6221 32.7966 26.6866C32.9971 26.6221 33.2622 26.2928 33.3916 26.1572C33.3269 26.2217 33.0618 26.2217 32.9971 26.0926L31.5419 24.5106V24.3815L31.6066 24.3169C31.6066 24.2524 31.6713 24.2524 31.6713 24.2524L33.7214 24.9755C33.9219 25.1047 33.9866 25.2403 33.9866 25.3049C34.0513 25.1757 34.1871 24.7754 34.2518 24.6462C34.1871 24.7108 33.9866 24.7754 33.8573 24.7108L31.8071 23.9876C31.764 23.9876 31.7424 23.9661 31.7424 23.9231V23.7939C31.7424 23.7294 31.8071 23.7294 31.8071 23.7294L33.9219 23.4001C34.1871 23.3355 34.3164 23.4646 34.3164 23.5292C34.3164 23.4 34.2518 22.9351 34.2518 22.806C34.2518 22.8706 34.1224 23.0707 33.8573 23.1353L31.8071 23.4646C31.7424 23.4646 31.7424 23.4001 31.7424 23.4001C31.6777 23.3355 31.6777 23.2709 31.613 23.1999V23.1353L33.2687 21.7471C33.4692 21.6179 33.6632 21.6179 33.7344 21.6825C33.605 21.5534 33.3399 21.2176 33.204 21.0885C33.2687 21.153 33.204 21.3532 33.0747 21.5534L31.4902 22.8706C31.447 22.9136 31.4255 22.9136 31.4255 22.8706C31.3608 22.8706 31.2961 22.8706 31.225 22.806C31.225 22.806 31.1603 22.7414 31.225 22.7414L31.9494 20.6946C32.014 20.4944 32.2145 20.4298 32.2792 20.4298C32.1498 20.3653 31.6842 20.1651 31.5548 20.1651C31.6195 20.1651 31.7553 20.4298 31.6842 20.63L30.9598 22.6123C30.9598 22.6769 30.8952 22.6769 30.8952 22.6769H30.6947L30.63 22.6123L30.2355 20.5009C30.2355 20.2361 30.3648 20.107 30.3648 20.107C30.2355 20.107 29.8345 20.1716 29.6405 20.2361C29.7051 20.2361 29.9056 20.3653 29.9703 20.5654L30.3648 22.6123C30.3648 22.6553 30.3433 22.6984 30.3001 22.7414C30.2355 22.7414 30.1708 22.806 30.0997 22.806H30.035L28.5798 21.224C28.4504 21.0239 28.4504 20.8302 28.5151 20.8302C28.3858 20.8947 28.0495 21.1595 27.9848 21.2951C28.0495 21.2951 28.25 21.2951 28.3793 21.4242L29.8345 23.0062V23.0707C29.7914 23.1138 29.7483 23.1568 29.7051 23.1999H29.6405L27.6549 22.4767C27.4545 22.4121 27.3251 22.212 27.3898 22.1474C27.2604 22.3476 27.1893 22.7414 27.1246 22.8706C27.1893 22.806 27.3898 22.7414 27.5903 22.806L29.5758 23.4646V23.7939L27.4609 24.1878C27.2604 24.1878 27.0664 24.0587 27.0664 23.9876C27.0664 24.1878 27.1311 24.6462 27.1958 24.7818C27.1958 24.7173 27.2604 24.5171 27.5256 24.4525L29.5758 24.0587C29.5758 24.0587 29.6405 24.0587 29.6405 24.1232C29.6405 24.1878 29.6405 24.1878 29.7051 24.2524V24.3169L28.0495 25.6342C27.849 25.8343 27.6549 25.7633 27.6549 25.6987C27.6549 25.8989 27.9848 26.2282 28.0495 26.2928C28.0495 26.2282 28.0495 26.028 28.1788 25.8989L29.8992 24.5817C29.8992 24.5386 29.9207 24.5386 29.9638 24.5817C29.9638 24.5817 30.0285 24.6462 30.0932 24.7108C30.1363 24.7108 30.1579 24.7323 30.1579 24.7754L29.4335 26.7577C29.3688 26.9578 29.1683 27.087 29.1037 27.0224C29.233 27.087 29.634 27.2871 29.828 27.2871C29.6987 27.2871 29.6275 27.087 29.6987 26.8933L30.423 24.8464C30.423 24.8464 30.423 24.7818 30.4877 24.7818C30.5524 24.8464 30.6171 24.8464 30.6882 24.8464C30.6882 24.8464 30.7529 24.8464 30.7529 24.911L31.1474 26.9578C31.1474 27.2226 31.018 27.3517 30.9469 27.4227C31.1474 27.4227 31.5419 27.2936 31.6713 27.2226C31.6066 27.2871 31.4061 27.0934 31.4061 26.9578L31.0116 24.8464V24.7818C31.0762 24.7818 31.1409 24.7173 31.2121 24.7173C31.2552 24.6742 31.2983 24.6742 31.3414 24.7173V24.7108Z" fill="#F37021"/>
<path fill-rule="evenodd" clip-rule="evenodd" d="M89.5939 12.236C89.5293 12.1714 89.5939 12.1068 89.5939 12.0358C89.6586 11.8356 89.7233 11.8356 89.7233 11.6419C89.3934 11.3772 89.3288 10.8477 89.5228 10.7186C89.7233 10.5184 90.383 10.7831 90.383 10.7831C90.978 10.3182 91.1785 9.98894 91.5083 9.79523C91.974 9.79523 92.8988 10.654 92.8988 11.1835C92.7695 11.3836 92.4332 11.7129 91.9093 12.3716C92.1098 12.8365 92.1098 13.1658 91.78 13.4305C91.7153 13.4305 91.5795 13.4305 91.4501 13.3014C91.5148 13.96 92.2456 14.3603 92.5108 14.8833C92.5108 15.9423 93.6361 17.2595 92.3814 18.1183C92.1163 18.2474 91.8511 18.4476 91.7217 18.7123C91.9222 19.7712 92.3168 20.8883 92.5172 22.0118L91.2626 22.0764C91.1332 22.4703 90.7322 23.1999 90.868 23.5938C90.868 23.5938 90.8034 23.5292 90.9327 23.5938C91.1332 23.8585 91.1979 26.0345 91.1332 26.2347C91.1332 26.4994 91.3337 26.4994 91.1979 26.9578C91.0685 27.0224 90.5382 27.3517 90.4735 27.5519C90.1437 27.8812 89.2188 27.9458 89.2188 27.8166C89.2188 27.4873 89.8785 27.0934 90.0143 26.6931C90.1437 25.1112 90.0143 23.5227 89.1542 22.2701C88.8243 22.0699 88.5591 22.5994 88.3587 22.8641C88.6885 23.852 89.2835 24.911 89.2188 26.0345C89.2188 26.3638 89.6133 26.8287 89.4193 27.2872L88.3587 27.8166H84.5234C84.3941 27.6165 84.1289 27.4228 84.1936 27.158H87.6343C87.6343 27.0289 87.9641 27.0934 88.294 26.564C88.294 24.982 86.6383 22.6704 86.9035 21.8762C87.2333 20.8883 87.699 20.0941 88.2228 18.7704L88.488 18.7058C87.893 20.6881 87.0328 21.676 87.1686 22.2701C87.2333 22.5994 87.3691 22.8641 87.5632 23.258L87.6925 23.6519C87.7572 23.852 87.9577 24.3105 88.087 24.4461C88.2875 24.4461 88.4169 24.3169 88.5527 24.2459C88.5527 23.9812 88.3522 23.6519 88.2228 23.4517L87.6925 23.6519L87.5632 23.258C87.9577 23.258 88.2228 22.9933 87.893 22.7931C88.8178 22.3282 87.6925 22.4638 88.0224 22.2636C88.5527 21.9989 88.8178 21.011 88.8825 20.4169C88.8825 20.2878 88.9472 20.2168 89.083 20.2168C89.4775 21.2757 89.4775 22.6575 90.1437 23.6519V23.9812C90.079 24.2459 90.1437 24.5752 90.273 24.7754C90.868 24.84 90.8034 24.7108 90.6675 23.9812C90.5382 23.9812 90.273 23.9166 90.1372 23.9812V23.6519C90.2019 23.5873 90.467 23.6519 90.5317 23.5873C90.3312 23.258 90.3312 22.9933 90.3312 22.664C90.3312 22.4638 90.4606 22.0699 90.5964 22.9287C90.7969 22.9933 91.1267 21.4113 91.1914 20.8818C89.9367 21.1466 91.1914 19.6938 90.2666 19.6292L90.7322 18.835C90.7322 18.5702 90.5317 18.3701 90.2019 18.5057L89.9367 18.1764C89.7362 18.1118 89.5422 17.7825 89.277 17.5823C89.0765 17.7825 88.7467 18.1764 88.682 18.4411C88.6174 18.5057 88.8114 18.5702 88.8825 18.5057C89.083 18.3055 89.2124 18.7058 89.5422 18.6348C89.6716 18.5057 90.0725 18.4347 89.9367 18.1699L90.2019 18.4992C89.9367 18.6284 89.9367 19.0933 89.9367 19.4226C89.4711 20.2813 89.6716 18.9577 89.1412 18.9577C88.8114 19.1578 88.6756 18.6284 88.4815 18.6929L88.2164 18.7575C88.2164 18.2926 88.281 17.7696 88.2164 17.2401C88.6109 14.9931 89.0765 15.0641 89.1412 14.399C89.1412 14.1343 90.1307 13.6048 90.0661 13.3401C90.1307 13.3401 90.2666 13.5403 90.2666 13.6048C90.2019 13.9341 89.5422 13.9341 89.6069 14.6638C90.0014 13.9406 91.1267 14.0052 91.1914 13.1464C90.9909 12.6169 91.4566 12.9462 91.4566 12.4232C91.3272 12.2941 90.9262 11.8937 90.8616 11.7C90.7969 11.6355 91.0621 11.2351 90.1372 11.2351C90.0725 11.2997 90.0079 11.7 89.872 11.8937C89.8074 11.9583 89.6715 12.0939 89.7427 12.1585C89.7427 12.223 89.872 12.2876 89.872 12.5524C89.8074 12.8171 89.872 12.9462 90.0014 13.0818C90.5317 13.3466 90.9262 13.0818 90.3312 13.4111C90.3312 13.4757 90.3312 13.5403 90.2666 13.6113C90.2666 13.5467 90.0661 13.282 90.0014 13.2174C89.9367 13.2174 89.6069 13.0173 89.6715 12.7525C89.7362 12.4878 89.7362 12.3586 89.6069 12.223L89.5939 12.236Z" fill="#F37021"/>
<path fill-rule="evenodd" clip-rule="evenodd" d="M71.8084 9.73065C71.8731 10.1956 71.6079 10.5249 71.6079 10.9833C72.0736 12.1068 71.6079 12.9656 71.7372 14.0181C71.2069 13.6888 71.0776 12.83 70.8771 11.9067C70.7477 11.1124 70.9417 10.8477 71.0064 9.99539L71.8019 9.73065H71.8084Z" fill="#F37021"/>
<path fill-rule="evenodd" clip-rule="evenodd" d="M70.4179 10.06C70.3532 11.4482 70.1527 12.1068 71.1422 14.2828C68.6328 15.3418 66.5826 16.0649 63.6076 16.9237C63.9374 14.8123 65.9876 10.7831 67.708 9.65962C69.1632 10.0535 70.4179 10.0535 70.4179 10.0535V10.06Z" fill="#F37021"/>
<path fill-rule="evenodd" clip-rule="evenodd" d="M63.9375 25.5696C63.2778 25.7698 63.2778 26.1636 63.6723 26.5575C63.9375 26.7577 64.2026 27.087 64.2026 27.1515H59.9729C59.9729 27.3517 60.1734 27.4809 60.3027 27.8102H83.7085C83.8379 27.4809 83.4434 27.087 83.314 26.6866C81.6584 26.0926 81.6583 24.5752 81.5937 22.8577C81.5937 22.7931 81.4643 22.5929 81.4643 22.2636C81.2638 21.9989 80.145 19.2934 80.6688 17.1174L81.0633 16.3942C81.3932 15.9293 80.9987 15.6711 81.2638 15.1416L86.1597 14.2182C86.2244 14.1537 86.2244 13.9535 86.095 13.8889C86.095 13.8244 86.1597 13.8889 86.095 13.8889L81.335 14.7477C81.6001 13.5596 80.5395 13.1658 81.0051 12.1714C81.6648 12.8946 83.4498 14.1537 84.3747 14.3474L84.8403 14.2828C83.6503 13.7533 81.5355 12.5007 80.3455 10.8477C80.2161 10.8477 80.0803 10.7186 79.9509 10.6475C79.9509 10.7767 80.2808 11.177 80.2161 11.2416C80.2161 11.2416 79.4206 11.771 77.9654 11.1124C77.4998 12.0358 72.3452 14.3474 72.3452 14.3474C72.5457 15.8002 73.2054 16.7235 73.9297 17.5178C73.7292 17.3886 73.9944 17.6469 73.9297 17.5178C74.9904 18.3765 76.2451 18.7704 77.6356 19.0351C77.9007 19.8293 78.8903 22.3992 78.9549 22.7996C79.0843 23.1934 79.2848 23.1934 79.2848 23.1934C79.4141 23.3226 79.8798 24.1813 79.8798 24.5106L80.0091 25.8989C80.0738 26.2282 80.4748 25.9635 80.5395 26.2928L80.339 27.1515H81.3285C80.7982 26.6866 81.128 25.8989 80.4683 25.5696C80.4037 24.7754 80.339 24.1813 80.0027 23.852C79.7375 23.0578 78.8773 20.9464 78.347 19.0351L78.6768 18.5702C77.2217 18.9641 76.0963 18.4411 74.777 17.7115C73.7874 17.2466 74.3824 17.6469 74.7123 17.4467C76.2968 18.1699 77.0923 17.9762 78.2823 17.8406C78.4117 18.0408 78.6768 18.2345 78.6768 18.5638L78.347 19.0287C78.6768 18.6994 78.942 18.8995 79.1425 19.8229C79.4077 20.6171 79.6728 21.2111 79.8669 21.8697C80.132 22.5284 80.3325 23.3871 80.5265 23.852C80.5265 23.852 80.727 23.852 80.8564 24.1168C81.322 25.5696 81.4514 25.7698 81.3867 26.4284C81.5161 26.9578 82.2469 26.4929 82.1822 27.1515H64.7912C65.0563 26.0926 64.4613 25.1693 64.7912 24.1813C64.1315 23.1224 62.4758 22.3347 62.741 20.8818C63.5365 19.7583 66.1105 18.6348 65.5155 17.3176C67.8956 16.1295 69.0856 18.1118 71.2651 17.9116C72.0606 17.9116 72.9208 17.7825 73.6451 17.5823C72.7203 16.8591 71.9248 15.7356 71.4656 14.7413C66.8349 16.6525 62.34 18.1764 57.3794 19.1643L56.9849 19.0351C56.5193 19.0997 48.9847 20.8173 49.2498 21.1466C46.4041 21.3467 43.0993 22.5348 42.3749 22.9287C42.0451 23.1289 41.9804 23.258 42.3749 23.3936C45.4146 24.1878 47.9305 23.5938 52.6258 21.8116L52.296 21.5469C52.0308 21.7471 48.1956 23.0643 46.6758 23.2645C45.0912 23.4646 43.7007 23.3936 43.041 23.1999C42.9074 23.1568 42.8858 23.1138 42.9764 23.0707C45.9514 21.8827 51.701 20.8237 52.4965 21.8181C52.9622 21.9472 53.292 22.212 53.5572 22.5413C53.8223 22.8706 54.3527 22.7414 54.7472 22.6704C55.2775 22.5413 55.3422 22.0764 55.3422 21.6115L54.7472 21.5469C54.482 21.5469 53.4278 21.676 53.292 21.8116C52.8975 21.4823 52.4965 21.153 51.9726 21.0174C53.0333 20.5525 54.7472 20.1587 55.6785 20.0941C54.8183 20.6881 55.2128 21.4113 54.7536 21.5469L55.3487 21.6115C55.3487 21.3467 55.3487 21.1466 55.478 21.0174C56.073 19.5646 58.5824 19.3644 59.8435 19.0351C59.8435 19.0351 59.1839 19.8939 58.7182 20.0941C58.5889 22.1409 57.858 23.9231 57.7287 25.9699C58.3237 25.9699 58.3237 26.6285 58.453 27.0289C58.2525 27.3582 57.9874 27.0289 57.7287 27.0934C56.8038 26.6285 57.9292 25.8408 57.1984 25.1822C57.5929 23.5292 58.1879 21.8827 58.1879 20.1651C57.9227 20.1651 57.858 20.4298 57.7222 20.63C57.5217 22.283 57.0625 23.8004 56.6616 25.3178C56.7909 25.4469 57.1272 25.5825 57.1272 25.8472C56.5969 26.1765 57.1272 26.7706 56.9267 27.1645H50.912L50.317 27.8231H59.4426L59.5072 27.4938C58.1879 26.041 58.6471 23.9295 59.3067 22.3476L60.8913 20.2361C62.2106 19.7067 63.0061 18.1247 64.3967 17.5952C64.3967 18.3184 63.5365 18.5832 63.0773 18.9835C62.547 20.107 61.0271 20.2361 60.8266 21.4888C61.4216 22.1474 62.2818 22.6123 63.0061 23.2063C63.7305 23.6712 63.5365 24.6592 64.0668 25.1176C64.1962 25.2467 64.0668 25.5115 63.9375 25.5825V25.5696Z" fill="#F37021"/>
<path fill-rule="evenodd" clip-rule="evenodd" d="M74.0526 1.74338C73.7874 2.13726 73.2571 2.40199 73.5869 3.13163C72.9272 3.52551 73.1213 4.11955 73.3218 4.44885C72.9919 4.77816 72.7914 5.43677 73.2571 5.8371C72.7267 6.43114 73.3864 6.96061 73.5869 7.15432C73.3218 7.74836 73.5869 8.21327 73.5869 8.21327C73.5222 8.60714 72.7914 9.27221 72.5263 9.46592C72.1317 10.4538 72.2611 12.5007 72.3258 13.8889C74.1755 12.9656 76.0316 12.1068 77.4803 10.8542C76.2257 9.99539 75.2297 7.94853 73.8456 8.08413C73.7163 6.63131 73.1213 4.05498 75.165 1.41408C75.4302 1.28494 75.8247 1.21391 76.0252 1.08477C75.165 0.955633 74.0396 1.47865 73.2506 1.0202C73.2506 1.0202 73.6451 1.67881 74.0461 1.74338H74.0526Z" fill="#F37021"/>
<path fill-rule="evenodd" clip-rule="evenodd" d="M78.4828 1.07832C78.4828 1.14289 78.748 1.27849 78.748 1.27849C78.748 1.27849 79.0131 1.21392 79.0131 1.14935C79.0131 1.08478 79.0778 0.884612 79.0131 0.820043C78.9485 0.820043 78.748 0.755473 78.6186 0.755473C78.6186 0.755473 78.4893 1.02021 78.4893 1.08478L78.3599 1.21392L77.4351 0.555307L77.5644 0.426168C77.5644 0.426168 77.9589 0.0322924 78.1594 0.0322924C78.3599 -0.0322773 79.4141 0.0322924 79.6793 0.232458C79.8798 0.432624 80.0091 0.561764 80.2743 1.02667C80.9986 1.55614 82.1887 1.55614 82.9195 2.15018C82.7901 2.35034 83.12 2.67965 82.8548 2.80879C82.6543 2.87336 82.1951 2.74422 82.1305 2.87336L82.0658 3.26723L81.8006 3.20266C81.8006 3.20266 81.93 2.73776 81.8006 2.73776C81.6713 2.67319 81.4061 2.5376 81.2703 2.60862C81.2056 2.67319 81.2703 2.73776 81.335 2.87336C81.335 3.0025 81.6648 3.07352 81.8653 3.0025L82.1305 3.06707L82.4603 3.13164C82.3309 3.46094 82.2598 3.59654 81.8006 3.46094C81.6713 3.79025 82.3956 4.05498 82.4603 4.18412C82.3956 4.31326 82.2598 4.44886 81.8006 4.18412C81.8006 4.18412 79.8862 6.03082 78.7609 6.56029C77.5709 7.08976 78.6962 6.29555 78.6962 6.29555C79.2266 6.09539 81.5419 4.11955 81.5419 3.91939C81.4772 3.79025 81.3414 3.52551 81.3414 3.32535C81.0116 3.19621 80.3519 3.38992 80.0867 3.59008C80.2161 4.18412 81.2768 7.15433 80.4813 11.6419L80.3519 11.5128C81.0763 7.15433 79.8862 3.65465 79.8862 3.65465C79.2266 3.91939 78.7609 3.71922 78.4311 3.78379C78.3017 6.48926 80.4812 6.88314 79.6858 10.4538C77.3704 10.06 75.7212 7.2189 74.3954 7.48363C74.3307 7.01873 73.865 6.23098 74.3307 5.96625C74.2013 5.57237 74.0655 5.0429 74.6605 4.71359C74.46 4.18412 74.3954 3.72568 74.9904 3.32535C74.861 2.99604 74.9257 2.2664 75.65 2.13726C75.7147 1.54322 75.9799 1.07832 76.5102 0.884612C75.9152 0.619877 75.7859 0.0258354 75.7859 0.0258354C76.3162 0.355141 76.7754 0.555307 77.5709 0.419711L78.4957 1.07832H78.4828Z" fill="#F37021"/>
<path fill-rule="evenodd" clip-rule="evenodd" d="M56.0018 50.4547L55.9372 46.7549C55.9372 45.6314 55.2128 44.4433 54.2168 43.7847C54.0163 43.7201 53.6865 43.5845 53.4213 43.5845C53.6865 43.5845 54.0163 43.5845 54.3462 43.4554C55.3357 42.9905 56.5257 41.7378 56.5257 39.5618C56.5257 37.9089 55.866 36.6562 54.676 35.7974C53.5507 35.0032 52.296 34.8095 50.9766 34.8095H40.7968V37.4504H43.1122V50.4547H40.7968V53.0311H48.0727V50.4547H45.7574V44.7145H50.7826C52.5029 44.7791 53.1626 45.9026 53.1626 46.8259L53.3631 53.0311H58.3237V50.4547H56.0083H56.0018ZM51.3065 42.2092H45.7509V37.4569H50.9766C51.5716 37.4569 52.2313 37.4569 52.7616 37.657C53.4213 37.9863 54.0163 38.716 54.0163 39.833C54.0163 41.2213 52.7616 42.2092 51.3065 42.2092Z" fill="#F37021"/>
<path fill-rule="evenodd" clip-rule="evenodd" d="M39.872 59.501C42.252 59.501 43.3127 60.8182 43.3127 62.4712C43.3127 64.1242 42.1873 65.3768 39.6779 65.3768H37.9576V69.929H36.4377V59.501H39.8784H39.872ZM37.9511 64.0531H39.8008C40.9262 64.0531 41.7152 63.4591 41.7152 62.4001C41.7152 61.6059 41.2495 60.8182 39.8655 60.8182H37.9511V64.0531Z" fill="#F37021"/>
<path fill-rule="evenodd" clip-rule="evenodd" d="M55.1417 69.929H53.486L52.1667 66.8296H47.6071L46.3524 69.929H44.6967L49.3274 59.4364H50.3881L55.1482 69.929H55.1417ZM48.2021 65.4414H51.5716L49.7866 61.3477L48.2021 65.4414Z" fill="#F37021"/>
<path fill-rule="evenodd" clip-rule="evenodd" d="M72.5327 69.929H71.0129V59.501H72.5327V69.929Z" fill="#F37021"/>
<path fill-rule="evenodd" clip-rule="evenodd" d="M83.4433 61.748C82.4538 60.9538 81.529 60.689 80.7335 60.689C79.7439 60.689 78.9484 61.154 78.9484 61.8771C78.9484 63.924 83.8443 63.8594 83.8443 67.2235C83.8443 68.8055 82.525 69.9935 80.6688 69.9935C79.4788 69.9935 78.4181 69.7288 77.4933 69.0702V67.1589C78.3534 68.1468 79.4076 68.6763 80.533 68.6763C81.7877 68.6763 82.3827 67.9531 82.3827 67.3591C82.3827 65.2477 77.4221 64.9829 77.4221 62.1419C77.4221 60.4243 78.8126 59.3718 80.8628 59.3718C81.7877 59.3718 82.5832 59.572 83.4433 60.095V61.748Z" fill="#F37021"/>
<path fill-rule="evenodd" clip-rule="evenodd" d="M66.117 68.6763C65.9165 68.4116 65.7225 68.1468 65.522 67.8175C64.7265 66.5003 64.0668 65.5705 63.0773 64.9765C64.2673 64.5116 64.927 63.5882 64.927 62.4001C64.927 60.618 63.5365 59.4945 61.2923 59.4945H58.5824V69.9225H60.1669V65.3703H60.8266C61.6221 65.3703 62.2818 65.6351 63.6723 67.7465L65.1275 69.9225H66.9125L66.117 68.6699V68.6763ZM61.1629 64.0531H60.1734V60.7536H61.1629C62.6828 60.7536 63.2778 61.3477 63.2778 62.3356C63.3425 63.1944 62.8833 64.0531 61.1629 64.0531Z" fill="#F37021"/>
</g>
<defs>
<clipPath id="clip0_3_1158">
<rect width="121" height="70" fill="white"/>
</clipPath>
</defs>
</svg>
